<?xml version="1.0" standalone="no"?>
<!DOCTYPE svg PUBLIC "-//W3C//DTD SVG 20010904//EN"
 "http://www.w3.org/TR/2001/REC-SVG-20010904/DTD/svg10.dtd">
<svg version="1.0" xmlns="http://www.w3.org/2000/svg"
 width="3000.000000pt" height="1000.000000pt" viewBox="0 0 3000.000000 1000.000000"
 preserveAspectRatio="xMidYMid meet">

<g transform="translate(0.000000,1000.000000) scale(0.100000,-0.100000)"
fill="#000000" stroke="none">
<path d="M1825 9886 c-527 -88 -942 -430 -1125 -926 -59 -159 -75 -264 -75
-485 0 -213 5 -251 56 -419 41 -133 96 -249 176 -370 72 -111 171 -211 1893
-1938 l805 -808 -1236 -1237 c-680 -681 -1256 -1265 -1281 -1298 -141 -187
-232 -396 -274 -626 -23 -125 -23 -362 -1 -486 98 -543 495 -987 1017 -1139
186 -54 437 -70 625 -39 243 39 478 141 660 285 60 49 3743 3730 6321 6320
758 762 847 855 907 946 115 173 189 361 222 563 21 124 16 413 -9 522 -42
184 -119 366 -221 519 -64 97 -288 321 -385 385 -156 104 -338 180 -530 223
-111 25 -443 24 -560 -2 -195 -42 -396 -131 -553 -243 -59 -42 -435 -413
-1380 -1360 -715 -717 -1303 -1303 -1307 -1303 -4 0 -596 589 -1316 1308
-1125 1125 -1322 1317 -1399 1369 -166 111 -334 183 -523 224 -125 26 -391 34
-507 15z"/>
<path d="M17600 8920 c-334 -47 -602 -181 -845 -425 -277 -276 -409 -574 -431
-972 -24 -435 123 -822 426 -1123 227 -226 445 -346 750 -411 90 -19 135 -23
310 -23 175 0 220 4 310 23 304 65 526 186 745 405 181 181 280 339 355 565
65 197 90 418 71 625 -36 380 -163 649 -431 916 -217 216 -439 339 -728 401
-111 23 -420 34 -532 19z m435 -610 c305 -78 542 -314 622 -619 35 -133 37
-343 5 -476 -59 -238 -226 -452 -440 -564 -236 -122 -550 -129 -789 -16 -235
110 -406 316 -474 570 -29 106 -32 354 -6 459 41 166 106 285 220 403 150 156
303 233 532 267 65 10 252 -4 330 -24z"/>
<path d="M24334 8915 c-257 -39 -467 -160 -610 -348 l-44 -58 -2 173 -3 173
-302 3 -303 2 0 -1415 0 -1415 303 2 302 3 6 870 c5 865 5 870 28 950 96 341
360 522 731 502 236 -13 408 -112 502 -292 76 -146 72 -82 75 -1112 l4 -923
305 0 305 0 -4 978 c-3 951 -4 979 -24 1072 -79 353 -257 596 -540 739 -194
97 -479 135 -729 96z"/>
<path d="M27375 8923 c-340 -44 -601 -176 -841 -425 -273 -284 -404 -614 -404
-1018 0 -167 11 -261 45 -397 63 -249 186 -458 386 -660 269 -270 592 -403
984 -403 411 0 708 139 952 445 l32 40 1 -178 c0 -360 -40 -518 -176 -684
-114 -140 -326 -235 -558 -251 -425 -30 -735 98 -900 372 l-33 55 -259 -151
c-142 -83 -260 -152 -262 -153 -6 -5 81 -140 128 -200 190 -239 472 -393 835
-456 187 -33 527 -33 697 -1 315 59 587 198 788 402 151 153 241 317 298 547
l26 108 3 1473 4 1472 -296 0 -295 0 0 -207 -1 -208 -36 45 c-201 247 -447
387 -756 429 -74 10 -296 13 -362 4z m500 -592 c159 -42 302 -127 412 -245 78
-83 116 -139 159 -231 107 -231 104 -556 -6 -776 -125 -248 -356 -424 -625
-474 -110 -21 -325 -16 -425 10 -285 74 -520 295 -612 575 -27 83 -31 113 -36
239 -7 222 30 375 129 527 138 210 335 343 582 390 104 20 319 12 422 -15z"/>
<path d="M13340 8853 c0 -5 267 -628 594 -1386 l594 -1379 -39 -91 c-125 -292
-275 -447 -484 -501 -33 -8 -104 -18 -157 -22 l-98 -7 0 -283 0 -284 83 0
c344 0 638 116 866 340 139 135 277 344 365 548 25 59 293 773 595 1587 l549
1480 -321 3 c-197 1 -323 -1 -327 -7 -3 -6 -165 -465 -360 -1020 -195 -556
-357 -1011 -360 -1011 -3 0 -193 458 -422 1018 l-416 1017 -331 3 c-182 1
-331 -1 -331 -5z"/>
<path d="M19790 7968 c0 -555 4 -936 11 -1007 28 -300 134 -538 321 -717 185
-178 398 -265 683 -280 397 -21 706 108 909 380 l36 49 0 -182 0 -181 303 2
302 3 3 1413 2 1412 -305 0 -305 0 0 -779 c0 -467 -4 -819 -10 -880 -13 -121
-49 -253 -93 -335 -39 -74 -130 -173 -203 -221 -198 -132 -513 -150 -734 -43
-89 43 -196 151 -238 239 -69 144 -66 98 -69 1107 l-4 912 -304 0 -305 0 0
-892z"/>
<path d="M23980 3205 l0 -2065 305 0 305 0 -2 2063 -3 2062 -302 3 -303 2 0
-2065z"/>
<path d="M19445 5088 c-3 -7 -6 -350 -8 -761 l-2 -748 -59 70 c-158 186 -366
306 -628 363 -137 29 -417 32 -551 5 -279 -56 -495 -174 -707 -387 -264 -263
-397 -555 -430 -946 -17 -205 9 -443 71 -634 34 -105 122 -278 190 -375 79
-111 238 -273 345 -352 142 -104 316 -183 494 -224 109 -26 362 -36 482 -20
186 25 345 80 486 168 81 50 209 166 274 246 l38 49 0 -201 0 -201 305 0 305
0 0 1980 0 1980 -300 0 c-231 0 -302 -3 -305 -12z m-775 -1638 c195 -24 354
-97 491 -228 189 -179 266 -355 276 -627 6 -162 -10 -272 -58 -397 -83 -214
-274 -405 -487 -486 -121 -47 -183 -57 -347 -56 -121 1 -165 5 -230 23 -215
58 -391 186 -510 370 -173 268 -189 651 -39 941 170 329 518 506 904 460z"/>
<path d="M25843 4662 l-283 -85 0 -303 0 -304 -260 0 -260 0 0 -295 0 -295
260 0 260 0 0 -752 c0 -895 3 -922 100 -1123 95 -197 241 -302 500 -358 82
-18 129 -21 340 -22 135 0 271 4 303 8 l57 8 0 273 0 273 -217 0 c-192 0 -225
3 -281 21 -85 27 -129 63 -161 131 l-26 56 -3 743 -2 742 345 0 345 0 0 295 0
295 -345 0 -345 0 0 390 0 390 -22 -1 c-13 -1 -150 -40 -305 -87z"/>
<path d="M14760 4034 c-335 -43 -581 -164 -820 -404 -264 -263 -397 -555 -430
-946 -17 -205 9 -443 71 -634 34 -105 122 -278 190 -375 79 -111 238 -273 345
-352 142 -104 316 -183 494 -224 109 -26 362 -36 482 -20 186 25 345 80 486
168 81 50 209 166 274 246 l38 49 0 -201 0 -201 305 0 305 0 0 1415 0 1415
-302 -2 -303 -3 -5 -193 -5 -194 -55 67 c-151 183 -371 311 -627 365 -96 20
-360 34 -443 24z m360 -584 c195 -24 354 -97 491 -228 189 -179 266 -355 276
-627 6 -162 -10 -272 -58 -397 -83 -214 -274 -405 -487 -486 -121 -47 -183
-57 -347 -56 -121 1 -165 5 -230 23 -215 58 -391 186 -510 370 -174 268 -189
651 -39 942 169 328 519 505 904 459z"/>
<path d="M28085 4029 c-337 -43 -645 -242 -765 -494 -54 -114 -73 -204 -73
-355 -1 -240 47 -364 203 -521 153 -155 245 -198 715 -334 305 -89 429 -141
512 -218 61 -56 76 -89 77 -167 1 -87 -23 -148 -80 -200 -82 -76 -204 -110
-389 -110 -293 0 -489 107 -593 322 -20 42 -39 77 -42 77 -7 1 -502 -287 -513
-298 -11 -11 56 -135 120 -219 220 -289 576 -442 1027 -442 468 0 856 192
1011 501 64 128 78 206 73 397 -4 139 -7 166 -32 237 -53 155 -155 284 -300
379 -117 78 -245 126 -626 235 -333 96 -470 165 -523 264 -30 57 -30 165 0
222 40 77 128 137 238 164 64 16 225 16 301 1 140 -28 263 -115 340 -240 20
-33 40 -60 43 -60 14 0 495 276 498 286 8 23 -103 173 -191 259 -258 252 -630
365 -1031 314z"/>
<path d="M20704 3956 c-3 -8 -4 -439 -1 -958 4 -782 7 -957 20 -1024 49 -263
131 -434 287 -598 131 -137 290 -226 498 -278 119 -30 422 -33 552 -5 223 48
409 160 536 322 l59 74 3 -174 2 -175 305 0 305 0 0 1415 0 1415 -305 0 -305
0 0 -812 c0 -879 -2 -925 -54 -1076 -57 -165 -164 -290 -308 -361 -110 -54
-180 -71 -314 -78 -333 -17 -564 138 -647 436 -21 75 -21 92 -25 984 l-3 907
-300 0 c-251 0 -301 -2 -305 -14z"/>
</g>
</svg>
